# xmcd
#
# Track frame offsets:
# 150
# 24362
# 46703
# 68043
# 87059
# 106767
# 130059
# 149674
# 168771
# 194199
# 216362
# 238364
# 266987
# 292819
#
# Disc length: 4087 seconds
#
# Revision: 0
# Processed by: cddbd v1.5.1PL2 Copyright (c) Steve Scherf et al.
# Submitted via: Audion 3.0.2 (http://www.panic.com/audion/)
#
DISCID=ce0ff50e
DTITLE=Varios - Salsa de coleccion
DYEAR=1900
DGENRE=
TTITLE0=Mentira -Cheo F
TTITLE1=Somos el son Ralpy Leavit
TTITLE2=Cancion- Sonora ponceña
TTITLE3=Amo mi soledad-La rebelión
TTITLE4=Déjala- Tito Gomez  Tito Rojas
TTITLE5=Por si te vuelvo a ver - cheo
TTITLE6=Son sabrosón- J Lebrón
TTITLE7=Guerrera- José Bello
TTITLE8=Son malas- Rey Reyes
TTITLE9=Pagina de amor- Tito Gomez  Tito Rojas
TTITLE10=Así soy- cheo feliciano
TTITLE11=Amor a medio tiempo- Boby Valentín
TTITLE12=Tal vez vuelvas a llamarme-  Son 14
TTITLE13=Convergencia -Yhonny Pacheco
EXTD=
EXTT0=
EXTT1=
EXTT2=
EXTT3=
EXTT4=
EXTT5=
EXTT6=
EXTT7=
EXTT8=
EXTT9=
EXTT10=
EXTT11=
EXTT12=
EXTT13=
PLAYORDER=
